<?xml version="1.0" encoding="utf-8"?>
<!-- Generator: Adobe Illustrator 23.0.4, SVG Export Plug-In . SVG Version: 6.00 Build 0)  -->
<svg version="1.1" xmlns="http://www.w3.org/2000/svg" xmlns:xlink="http://www.w3.org/1999/xlink" x="0px" y="0px"
	 viewBox="0 0 687.1 339.1" style="enable-background:new 0 0 687.1 339.1;" xml:space="preserve">
<style type="text/css">
	.st0{display:none;}
	.st1{display:inline;}
	.st2{fill:#FFFFFF;}
	.st3{fill:#606161;}
</style>
<g id="Layer_2" class="st0">
</g>
<g id="reference">
</g>
<g id="Layer_1">
	<path d="M42,0c14.8,0,34.6,0,52,10c18,10.4,31.2,31,31.2,65.3c0,33.2-12.4,54.4-32,65.5c-17.6,9.8-37.8,9.8-51.2,9.8H0V0H42z"/>
	<path d="M210.1,150.5l-12.6-37.6H140l-12.8,37.6h-24.4L157.3,0h28l53.6,150.5H210.1z"/>
	<path d="M256.6,90.9v59.6h-26.4V0h50c11.2,0,27,0,40,8.8c11.2,7.6,16.8,19.6,16.8,35.6c0,23.4-11.8,36.8-29.4,42.6l37,63.5h-30
		l-32.8-59.6H256.6z"/>
	<path d="M361.9,90.9v59.6h-26.4V0h50c11.2,0,27,0,40,8.8c11.2,7.6,16.8,19.6,16.8,35.6c0,23.4-11.8,36.8-29.4,42.6l37,63.5h-30
		l-32.8-59.6H361.9z"/>
	<path d="M545.2,0v30.8h-62.7V58h51.2v30.8h-51.2v30.8h64.1v30.8H441.6V0H545.2z"/>
	<path d="M586,0l56.4,84.9V0h36v150.5h-36l-61.2-88.9v88.9h-36V0H586z"/>
	<path d="M127.8,185.8L151,290.7l24.8-102.5h42.4l24,102.5l24-104.9h34.4l-39.2,150.5h-44l-24.8-102.5l-24.8,102.5h-44L85.3,185.8
		H127.8z"/>
	<path d="M353.2,339.1c-45.2,0-69.7-30-69.7-77.9c0-48.4,25.2-78.3,70.5-78.3s69.7,30,69.7,77.9
		C423.6,309.3,398.4,339.1,353.2,339.1z"/>
	<path d="M462.1,185.8l56.4,84.9v-84.9h36v150.5h-36l-61.2-88.9v88.9h-36V185.8H462.1z"/>
	<path d="M687.1,253.8v76.9c0,0-22,8-50.8,8c-50,0-82.9-24-82.9-76.3c0-53.4,34.2-78.3,88.9-78.3c22,0,39.2,4,39.2,4v31.2h-1.6
		c0,0-17.6-4.8-35.6-4.8c-33.2,0-46.8,16-46.8,46.4c0,31.2,14.4,48,39.2,48c5.6,0,11.2-0.8,11.2-0.8v-24h-21.6v-30.4H687.1z"/>
</g>
</svg>
